<?xml version="1.0" encoding="utf-8"?>
<svg version="1.1" xmlns:xlink="http://www.w3.org/1999/xlink" width="438px" height="252px" xmlns="http://www.w3.org/2000/svg">
  <g transform="matrix(1 0 0 1 -594 -371 )">
    <path d="M 595 377  A 5 5 0 0 1 600 372 L 1026 372  A 5 5 0 0 1 1031 377 L 1031 617  A 5 5 0 0 1 1026 622 L 600 622  A 5 5 0 0 1 595 617 L 595 377  Z " fill-rule="nonzero" fill="#000000" stroke="none" fill-opacity="0.0196078431372549" />
    <path d="M 594.5 377  A 5.5 5.5 0 0 1 600 371.5 L 1026 371.5  A 5.5 5.5 0 0 1 1031.5 377 L 1031.5 617  A 5.5 5.5 0 0 1 1026 622.5 L 600 622.5  A 5.5 5.5 0 0 1 594.5 617 L 594.5 377  Z " stroke-width="1" stroke-dasharray="9,4" stroke="#108ee9" fill="none" stroke-dashoffset="0.5" />
  </g>
</svg>