<?xml version="1.0" encoding="utf-8"?>
<svg version="1.1" xmlns:xlink="http://www.w3.org/1999/xlink" width="19px" height="19px" xmlns="http://www.w3.org/2000/svg">
  <defs>
    <filter x="610px" y="498px" width="19px" height="19px" filterUnits="userSpaceOnUse" id="filter3">
      <feOffset dx="1" dy="1" in="SourceAlpha" result="shadowOffsetInner" />
      <feGaussianBlur stdDeviation="2.5" in="shadowOffsetInner" result="shadowGaussian" />
      <feComposite in2="shadowGaussian" operator="atop" in="SourceAlpha" result="shadowComposite" />
      <feColorMatrix type="matrix" values="0 0 0 0 0  0 0 0 0 0  0 0 0 0 0  0 0 0 0.698039215686274 0  " in="shadowComposite" />
    </filter>
    <g id="widget4">
      <path d="M 618.5 502  C 621.02 502  623 503.98  623 506.5  C 623 509.02  621.02 511  618.5 511  C 615.98 511  614 509.02  614 506.5  C 614 503.98  615.98 502  618.5 502  Z " fill-rule="nonzero" fill="#ffffff" stroke="none" />
      <path d="M 618.5 502.5  C 620.74 502.5  622.5 504.26  622.5 506.5  C 622.5 508.74  620.74 510.5  618.5 510.5  C 616.26 510.5  614.5 508.74  614.5 506.5  C 614.5 504.26  616.26 502.5  618.5 502.5  Z " stroke-width="1" stroke="#ffffff" fill="none" />
    </g>
  </defs>
  <g transform="matrix(1 0 0 1 -610 -498 )">
    <use xlink:href="#widget4" filter="url(#filter3)" />
    <use xlink:href="#widget4" />
  </g>
</svg>